<?xml version="1.0" encoding="UTF-8"?><svg id="Layer_1" xmlns="http://www.w3.org/2000/svg" width="612" height="400.07" viewBox="0 0 612 400.07"><defs><style>.cls-1{stroke-width:0px;}</style></defs><path class="cls-1" d="m297.48,229.59c.64-2.35-1.44-4.89.04-7.38.04-.08.03-.25-.03-.31-1.05-1.12-.42-2.53-.66-3.78-.04-.19-.22-.35-.34-.52-.95-.07-1.9-.15-2.84-.22.02-2.82.44-3.38,2.6-3.87.72-.17,1.52-.32,2.09-.74.37-.28.39-1.03.58-1.62-.84-.22-1.43-.38-1.85-.48.1-1.08.5-2.12.19-2.88-.57-1.42-.37-2.72-.14-4.12.3-1.88.95-3.88-.71-5.5-1.23-1.2-.79-2.47-.56-3.9.29-1.73,1.7-2.68,2.5-4.08-.22-.49-.33-.92-.57-1.25-.98-1.35-1.1-2.72-.26-4.18.21-.36.33-.78.44-1.19.33-1.28.34-2.37-.48-3.67-1.04-1.65-2.05-3.6-.78-5.72.2-.33.31-1.01.11-1.24-.9-1.07-.46-2.31-.61-3.48-.08-.62-.16-1.35-.53-1.79-1.9-2.22-2.01-4.42.13-6.78-.61-.52-1.05-1.11-1.63-1.34-2.11-.85-2.93-2.74-3.94-4.51-.37-.65-.71-1.33-1.11-1.97-.91-1.47-1.33-3.43-3.77-3.26-.62.04-1.39-.62-1.91-1.13-.76-.75-1.3-1.72-2.04-2.5-.73-.76-1.63-1.36-2.39-2.11-1.79-1.76-3.45-3.7-5.73-4.84-1.92-.96-3.86-1.8-5.43-3.36-.57-.57-1.46-.95-2.27-1.14-5.69-1.37-11.44-2.32-17.32-1.98-.31.43-.61.84-.8,1.11-1.07-.17-1.99-.39-2.93-.47-3.52-.29-6.77,1.08-10.13,1.78-2.09.43-4.22.87-6.17,1.71-3.05,1.3-5.93,3.01-8.94,4.42-4.38,2.05-8.81,3.99-13.2,5.99-1.47.67-2.89,1.47-4.39,2.08-.77.31-1.68.55-2.48.45-2.44-.3-3.97.02-5.46,1.5-.78.77-1.52,1.58-2.22,2.31,0,1.78-.49,3.64.1,5.05,1.27,3.02.09,4.89-2.17,6.52.28,1.01.54,1.92.76,2.7-2.45,2.12-5.44,2.33-8.17,3.23-1.94.64-1.84.76-1.5,2.74.25,1.45.4,3.1-.05,4.43-.57,1.67-1.8,3.11-3,5.06v2.05c-.77.38-1.43.71-1.88.93-2.55-1.15-4.79-2.58-7.23-3.11-1.55-.34-2.59-.95-3.56-1.99-2.96-3.16-6.59-4.73-10.91-4.86-.6-.02-1.19-.39-1.8-.56-1.59-.43-2.36-1.95-3.7-2.71-2.23-1.29-4.59-2.38-6.51-4.16-.23-.21-.55-.42-.84-.44-3.16-.25-4.89-2.64-6.81-4.65-1.65-1.72-3.1-3.64-4.57-5.39h-4.8q-1.23-1.95-3.57-1.54c-.24,1.14.22,1.77,1.27,2.31,1.21.63,2.52,1.43,1.58,3.49-3.84-1.02-7.33-3.01-11.27-3.38-.25.53-.5,1.07-.71,1.5,1.2.37,2.44.52,3.4,1.12,1.82,1.15,3.81,1.91,5.7,2.9,1.32.69,2.44,1.76,3.77,2.44,1.73.89,3.01,2.05,3.47,4.07-.26.29-.55.61-.88.99-1.47-.64-2.96-1.19-4.35-1.92-2.82-1.48-5.5-3.22-8.55-4.24-.69-.23-1.26-.89-1.94-1.01-3.81-.66-7.45-1.74-10.86-3.83.36-1.19.79-2.28,1.01-3.42.2-1.03.27-2.1.23-3.15-.04-.95-.44-1.89-.45-2.83-.04-3.7-.24-7.42.63-11.08.22-.9.74-2.1.37-2.71-.85-1.4.46-1.7.82-2.48.13-.28.2-.64.15-.95-.23-1.53.63-2.69,1.3-3.91.98-1.78,1.84-3.64,2.97-5.33,1.15-1.72.91-3.93,2.31-5.57.81-.94,1.33-2.17,1.79-3.35,1.62-4.15,2.62-8.54,4.63-12.55.04-.08.12-.21.09-.26-.82-1.52.69-2.54,1.01-3.77.32-1.23,1.99-2.11,3.07-3.16.39-1.64-.55-3.48.65-5.09.19-.25.02-.86-.12-1.25-.5-1.37-1.07-2.71-1.45-3.67.86-2.7,2.44-4.85,1.05-7.6-.66-1.32-.94-2.82-1.44-4.22-.86-2.42-3.01-3.36-5.39-2.23-1.74.83-3.38,1.9-5.05,2.87-.26.15-.71.33-.73.52-.15,2.31-2.41,3.91-2.12,6.38.05.43-.33,1.03-.67,1.39-2.36,2.45-2.54,3.01-1.99,6.66-1.1,1.32.39,2.79-.11,4.21-1.67,0-3.23.21-4.71-.07-1.08-.21-2.09-.98-3-1.68-.3-.23-.21-.98-.34-1.71-1.01.36-2,.45-2.55.98-1.16,1.11-2.13,2.43-3.09,3.73-.36.5-.5,1.17-.69,1.78-.26.81-.39,1.67-.73,2.44-.8,1.79-1.5,3.59-1.28,5.6.18,1.58-.28,3.19-1.16,4.26-2.35,2.84-3.97,6.09-5.76,9.24-.42.74-.71,1.55-1.03,2.34-1.45,3.65-2.72,7.4-4.39,10.95-1.49,3.17-2.84,6.41-4.67,9.42-.33.55-.79,1.14-.82,1.73-.27,4.09-1.64,8.06-1.4,12.21.09,1.52-.02,2.97-.87,4.39-.63,1.06-.85,2.4-1.08,3.64-.32,1.69-.2,3.51-.79,5.07-.49,1.3-.6,2.53-.54,3.82.29,7.22-.64,14.47.59,21.69.51,2.98.48,6.05.73,9.08.03.41.26.8.35,1.22.48,2.17.34,4.49,1.56,6.5.07.12-.05.43-.17.59-.82,1.17-.4,2.2.18,3.34.42.83.61,1.83.68,2.77.08,1,.2,1.82.92,2.67.63.74.49,2.12,1.11,2.87,1.14,1.39,1.39,2.88,1.34,4.57-.04,1.29-.11,2.53.59,3.8,1.08,1.95,2.1,3.97,2.08,6.33,0,.46.51.91.7,1.39,1.19,3.08,3.52,5.54,4.58,8.72,1.33,3.98,4.43,6.88,7.02,9.98,2.58,3.08,5.86,5.57,8.83,8.32.08.07.17.15.26.2,4.39,2.68,8.24,6.17,12.9,8.47,1,.49,1.83.95,2.98.99,2.49.08,4.97-.13,7.47.56,1.71.47,3.66-.1,5.42.71.45.21,1.12.12,1.64-.02,2.93-.8,5.95-.91,8.93-1.29.95-.12,1.9-.33,2.8-.65,1.41-.49,2.63-1.36,4.25-1.47,1.07-.07,2.31-.77,3.07-1.57,2.25-2.37,5.14-3.16,8.14-3.51,2.53-.3,4.66-1.57,6.96-2.4,1.57-.57,3.11-1.66,4.23-2.91,1.16-1.29,2.75-1.94,3.86-3.12,1.47-1.56,2.79-3.34,3.81-5.22.92-1.69,1.32-3.64,3-4.88.29-.21.43-.75.48-1.15.31-2.38,1.56-4.21,3.24-5.83.77-.74,1.47-1.57,2.17-2.31q-1.8-2.48-.03-4.49c.27-.31.46-.68.71-1.06-.78-.82-1.45-1.54-2.03-2.15.2-.96.79-2.07.46-2.54-1.12-1.6-.17-2.74.61-3.82.78-1.08,1.6-2.05,1.5-3.47-.71-.82-1.42-1.63-2.38-2.75,2.17-1.95.66-3.98.26-6.04-.09-.48-.37-1.01-.26-1.44.62-2.36.67-4.68-.08-7.02-.09-.27-.11-.7.04-.89,1.13-1.43.2-2.79-.71-3.37-1.15-.74-.81-1.28-.52-2.11.12-.36.2-.79.15-1.16-.19-1.48-.43-2.96-.63-4.28,1.53-1.63,2.79-3.25,4.52-.65.08.12.41.12.62.11,1.5-.11,2.99-.24,4.78-.4,1.43.61,3.27,1.23,4.94,2.17,1.7.95,3.26-.89,4.95,0,.31.16,1.23-.45,1.62-.91.88-1.04,1.61-2.2,2.36-3.34.05-.07-.22-.35-.41-.64,3.61-1.19,6.65-3.47,10.11-4.95,2.15-.92,4.21-1.96,6.49-2.67,1.65-.51,3.54-.94,4.84-2.42.71-.8,1.7-1.36,2.47-2.11.82-.79,2.5-.18,2.8-1.76,1.08-.07,2.17-.08,3.24-.23.5-.07,1.08-.27,1.44-.6,1.89-1.76,4.1-2.32,6.61-2,.21.03.44-.03.78-.07.47-.58.88-1.62,1.54-1.82,3.21-.95,6.55-2.92,9.62.37.12.13.42.08.61.18,2.63,1.44,5.36,2.75,7.28,5.17.67.84,1.29,1.72,1.93,2.58,1.42,1.9,2.72,3.83,2.52,6.38-.05.66,0,1.32,0,2.02.29.31.59.63.88.96,1.43,1.63,1.54,2.73.24,4.58-.86,1.22-1.26,2.49-1.14,3.96.06.77.15,1.58-.03,2.31-.66,2.56-1.4,5.11-2.18,7.64-.53,1.71-.89,3.28.52,4.84.79.88.53,2.04-.59,2.4-1.6.52-2.09,1.78-2.93,2.96-.75,1.04-1.02,2.12-.67,3.05.63,1.66.39,3.67,2.06,4.78-.59.81-.95,1.65-1.93,1.13-1.01-.55-1.44.45-2.13.69-.33,3,.76,6.19-1.53,8.85.52.61.94,1.1,1.35,1.57-.77,1.59-2.32,1.77-4.1,1.89.27,1.71.67,3.19.69,4.67.02,1.19.44,2.67-1.1,3.44-.24.12-.37.46-.55.71.92.92,1.77,1.73.78,3.14-.38.55-.28,1.44-.4,2.14-.8.46-2.09.05-2.25,1.26.6.46,1.14.87,1.93,1.47-1.14.52-1.98.9-2.96,1.35.17.97.34,1.92.51,2.86.08.42.4.97.24,1.22-1.48,2.25-1.39,5.5-4.65,6.82.83.61,1.41,1.03,1.95,1.42-.74,2.16-1.42,4.17-2.08,6.09-.89.87-3.07.62-2.29,2.68,2.21.57,4.26,1.12,6.33,1.62,1.21.29.8,1.02.61,1.67-1.6.94-3.13-.67-4.38-.2-1.33.49-3.23-.18-3.98,1.53.19.9.79,2.07.46,2.47-1.05,1.26.43,2.51-.39,3.89-.63,1.06-.21,2.8-.13,4.23.05.83.35,1.64.56,2.52-.36.86-2.46.49-1.66,2.49.36.91-.36,2.24.97,2.78-.86,1.45-1.77,2.77-2.43,4.2-.43.94-.91,2.17-.64,3.06.34,1.1.4,1.82-.01,2.98-.63,1.78-.65,3.81-.76,5.74-.09,1.53-.15,2.95-.94,4.38-.83,1.49-1.05,3.2-1.13,4.98-.13,3.09,1.72,6.15.12,9.24-.02.04.16.16.18.26.44,2.2,1.1,4.34,1.14,6.64.03,1.7.23,3.46.77,5.07,1.01,3.03,4.2,4.88,7.62,5.02,2.03.08,3.06-.33,2.81-2.84-.06-.57-.25-1.13-.41-1.84.98,0,1.85.04,2.72-.01.79-.04,1.57-.17,2.51-.28q-2.2-3.24-2.1-7.6c1.83.52,2.42-.83,3-2.15.49-1.13,1.13-2.08,2.52-2.66.74.36,1.67.68,2.43,1.23.88.64,1.61,1.49,2.34,2.18q2.5-.03,4.15-1.64c-.58-.64-1.46-1.19-1.67-1.94-.22-.81.18-1.8.31-2.73-3.18-1.94-3.27-2.53-1.12-5.43.54-.72,1.25-1.9,1-2.5-.46-1.11.12-1.81.63-2.18,1.06-.77,1.39-1.7,1.61-2.9.65-3.63,2.44-7.27,4.75-10.33.92-1.22,1.96-2.47,2.46-3.87.7-1.99.72-4.23,1.46-6.2.84-2.22.93-4.84,3.4-6.44-1.4-.71-2.49-1.27-3.78-1.93.86-1.3,1.48-2.3,1.77-3.65.51-2.44,1.49-4.97,4.22-6.04.45-.18.98-.36,1.44-.29,2.3.38,3.15-.16,3.96-2.66-1.42.15-2.84.31-4.22.46-.85-3.47,2.21-3.63,3.95-5.21-1.37-.11-2.42-.19-3.38-.27-.37-1.54-.09-2.7,1.09-3.38,2.49-1.43,2.41-3.51,1.71-5.84-.21-.7-.24-1.45-.33-2,1.02-.81,1.86-1.46,2.81-2.21-1.72-1.21-2.61-2.62-2.01-4.65.56-.65,1.16-1.34,1.85-2.13-.75-.16-1.27-.27-1.79-.38,1.32-3.71,1.4-3.76,6.84-3.79.47-.56,1.61-1.37,1.49-1.84-.5-1.88,1.6-2.02,2.04-3.3-1.71-.39-2.96-.19-3.46,1.6-.03.11-.37.13-.91.3-.23-.29-.55-.71-.85-1.09.24-.75.44-1.39.68-2.13-1.03-.13-1.76-.22-2.66-.33.07-.84-.13-1.75.23-2.27,1.5-2.13,3.8-3.1,5.95-3.7.54-1.34.99-2.48,1.5-3.74-.11-.1-.32-.43-.61-.51-.31-.09-.96.16-.98.09-.26-.74.23-.86.84-.96,1.05-.17,2.08-.43,3.12-.68.14-.03.24-.24.46-.47-.91-.12-1.72-.24-3.03-.41.78-.7,1.21-1.08,1.74-1.56Zm-142.06,3.77c-1.15,4.98-4.92,6.77-9.36,8.05-3.43,1-6.92.23-10.35.92-1.6.32-3.4-.11-5.07-.4-.67-.12-1.19-.95-1.87-1.21-3.58-1.39-6.62-3.9-10.44-4.83-1.06-.26-1.95-1.31-2.88-2.05-.51-.41-.89-1-1.42-1.38-2.75-1.98-3.31-4.88-3.45-8.37-.22-.17-.67-.49-1.11-.84-3.7-2.91-4.82-7.11-6.24-11.35-1.13-3.37-.62-7.06-2.45-10.22-.29-.5-.18-1.33-.03-1.96.33-1.38-.72-2.01-1.28-2.96-.48-.82.91-1.65.07-2.97-1.01-1.59-1.2-3.76-.77-5.68,1.01-4.44.21-8.95.69-13.38.35-3.24,1.05-6.52,2.94-9.6.59,0,1.1-.15,1.46.02,4.19,2.02,8.66,3.48,12.37,6.44,1.78,1.41,2.67,2.35,2.35,2.91-.87,1.51-2.22,2.35-3.94,2.53-.54.06-1.11.03-1.63-.09-2.72-.6-2.84-.52-2.99,2.42,1.83.83,3.79,1.63,5.42,3,.33.28.84.49.96.84.79,2.29,2.94,3.16,4.68,4.35,1.79,1.23,3.56,2.42,5.11,3.96.99.99,2.13,1.84,3.28,2.64,2.15,1.5,3.63,3.65,5.47,5.45,3.83,3.76,7.7,7.5,11.74,11.03,1.38,1.2,3.08,2.08,3.75,3.87,1.38,3.66,4.12,6.83,3.97,11.03,1.34,2.13-.04,4.76,1.26,6.92.11.18-.16.59-.23.89Z"/><path class="cls-1" d="m466.78,118.03c-1.03-.82-2.17-1.36-3.58-1.27-1.18.08-2.4.23-3.33-.92-.26-.33-1-.26-1.51-.4-.72-.18-1.46-.31-2.15-.59-3.34-1.35-7-1.9-10.05-4-.59-.4-1.4-.63-2.12-.67-3.88-.2-7.45-1.86-11.36-2.18-3.74-.31-7.44-1.31-11.24-1.15-4.25.18-8.51-.38-12.77.55-2.18.48-4.5.23-6.78.68-3.59.7-7.04,1.8-10.52,2.83-.8.24-1.47,1.11-2.24,1.15-2.02.12-3.73.96-5.49,1.78-2.92,1.36-5.84,2.72-8.77,4.06-1.07.49-2.24.77-3.23,1.38-2.47,1.53-4.88,3.16-7.26,4.82-1.42.99-2.91,1.95-4.07,3.2-4.06,4.35-8.01,8.79-11.95,13.25-1.36,1.54-2.73,3.11-3.77,4.86-1.42,2.4-3.2,4.37-5.53,5.86-.68.44-.86,1.1-1.19,1.81-1.32,2.88-2.59,5.92-6.15,6.84-.15.04-.23.32-.35.49-.31.56,1.08.92.11,1.67-.65.5-.9,1.78-1.55,1.98-1.67.5-1.02,1.96-1.46,2.99-1.25.38-2.44.74-3.64,1.1,1.25,1.38.1,2.4-.46,3.5-.76.1-1.49.2-1.62.22-1.72,2.17-3.11,3.91-4.49,5.65.4.23.81.46,1.51.86-1.36,1.26-2.45,2.26-3.66,3.39.13,1.36-.29,2.99.23,4.56.71-.12,1.19-.21,2.36-.41-1.16,1.25-1.81,1.97-2.51,2.72,1.23,1.47.4,2.82-.32,4.15-.81,1.51-1.49,3.14-2.54,4.47-1.43,1.8.48,3.31.12,4.96-.02.11,0,.22,0,.33.14,2.23,1.1,2.87,3.2,2.09,1.2-.45,2.38-.96,3.58-1.42.12-.05.31.1.5.17-.17.47-.34.93-.6,1.63,1.64.41,3.14.86,4.68,1.13.3.05,1.09-.82,1.02-.95-.7-1.39.42-1.51,1.16-1.54.95-.04,1.61-.33,2.32-.96,1.46-1.31,2.52-2.71,2.01-4.7.56-.3.93-.52,1.32-.7,1.55-.74,2.79-1.67,3.97-3.07,1.49-1.77,2.56-4.07,4.87-5.1.97-.43,1.9-.96,2.87-1.38,1.28-.55,2.28-1.26,2.22-2.85-.1-2.43,1.17-3.94,3.44-4.42,1.24-.26,2.07-.93,2.44-1.91.27-.72.57-1.14,1.11-1.7,1.49-1.54,2.98-3.22,3.9-5.13,1.35-2.81,3.09-5.21,5.39-7.26.66-.59,1.3-1.21,1.85-1.89,1.52-1.88,3.54-3.18,5.45-4.56,1.46-1.05,3.22-1.76,5.19-1.51.43.06,1.09-.32,1.34-.7.21-.31-.08-.92-.08-1.4,0-.61-.15-1.37.15-1.8,1.03-1.45,1.87-3.13,4.03-3.39.99-.12,1.81-.71,2.49-1.73,1.34-2.01,1.95-1.99,4.3-.58.92.55,1.68.54,2.32-.28.44-.57.7-1.28,1.07-1.91.42-.7.72-1.62,1.35-2.03,3.37-2.21,7.3-3.04,11.13-3.93,2.79-.65,13.94.08,16.69.6.2.04.38.21.59.25,3.56.8,6.74,2.62,10.17,3.78,1.42.48,2.61.85,4,.13.42-.22.99-.16,1.82-.27-.47,2.15,1.03,3.14,2.26,3.77,1.69.85,3.77.87,5.29,2.24,1.29-.29,2.11.34,2.96,1.26.44.48,1.38.47,2.08.74.58.22,1.27.38,1.69.79,2.36,2.26,4.95,4.11,8.08,5.18.8.27,1.6.66,2.27,1.17,3.24,2.47,6.26,5.19,9.8,7.3,1.55.92,3.06,1.97,4.69,2.8.94.47,2.34.63,2.78,1.37.56.94,2.13,1.25,1.82,2.73-.02.09.3.37.37.34,2.13-.9,3.11.79,4.29,1.92,1.07,1.03,2.24,1.7,3.76,1.58,1.13-.09,1.68.41,2.19,1.48,1.35,2.82,3.23,5.12,6.77,5.17.32,0,.73,0,.93.19,2,1.91,4.91,2.64,6.33,5.38,1.17,2.25,3.29,2.71,5.89,1.99.5-.14,1.36-.38,1.5-.18,1.27,1.75,3.2,1.01,4.75,1.28.13.35.3.56.26.73-.39,2.21,1.04,3.92,1.75,5.76.56,1.44,2.4.44,3.63.75.82.21,1.6.57,2.4.84,1.38.45,2.26-.07,2.88-1.27.64-1.24.67-2.49.63-3.79-.03-.9.59-1.81,1.21-1.62,1.08.32,1.95.13,2.97,0,.55-.07,1.18.88,1.85,1.15.98.4,2.27.32,3.01.94,1.26,1.06,1.98-.83,3.03-.26.27.15.63.12.94.18.83.17,1.67.49,2.5.48,1.56,0,2.85.28,4.24,1.22,1.27.87,2.81,2.21,4.63,1.16.71-1.71-.81-2.09-2.05-2.86,2.77-1.74,5.95.27,8.27-2.1-.79-2.32.56-4.43,1.3-6.56-1.69-2.58-3.68-4.65-6.03-6.4-1.3-.97-2.5-2.08-3.77-3.09-1.01-.81-1.98-1.7-3.1-2.34-1.66-.95-3.01-1.87-3.21-4.1-.11-1.2-.61-2.87-2.59-2.8-.2,0-.48-.58-.61-.93-.26-.69-.37-1.45-.69-2.11-.26-.55-.79-1.46-1.11-1.42-1.92.23-2.71-.93-3.47-2.34-.24-.44-.79-.97-1.24-1.01-1.95-.16-2.66-1.59-3.52-3-.39-.64-1.08-1.55-1.62-1.54-1.73.01-2.26-1.65-3.55-2.15-1.46-.56-2.57-1.55-3.69-2.6-1.09-1.02-2.33-2.41-3.64-2.57-2.86-.34-4.43-2.06-6-4.06-.27-.35-.79-.56-1.24-.7-1.78-.56-3.74-.79-4.27-3.11-.08-.34-.59-.63-.95-.85-1.47-.88-2.98-1.71-4.45-2.6-1.37-.82-2.75-1.54-4.36-1.81-1.01-.17-1.78-.67-2.45-1.65-.76-1.11-1.98-2.11-3.21-2.65-1.97-.87-3.83-1.86-5.66-2.97-.99-.6-2.55-.59-3.16-1.38-1.62-2.1-4.27-2.04-6.24-3.42-1.36-.95-3.52-.73-5.53-1.07-1.38-1.14-2.96-2.47-4.58-3.76Z"/></svg>